<svg version="1.0" xmlns="http://www.w3.org/2000/svg" width="1301.333" height="1301.333" viewBox="0 0 976 976"><path d="M225 60c-67.9.4-145.8.8-173.1.9L2.2 61l-.6 7.7C1.2 73 .7 79.3.4 82.7L-.2 89h15.3c24.8 0 35.4 3.3 46.5 14.4 9.8 9.9 13.6 20.1 15.4 42.3.5 7.1 1 147.3 1 355.8.2 369.4.4 352.6-4.6 363-1.7 3.7-11.3 12.6-17.4 16.2-8.3 5-25.1 8.2-42.7 8.3H6v28h253.3c285.2 0 321.1-.6 387.7-6.1 108.5-8.9 182.3-27.5 227.5-57.3 6.1-4 14.8-9.7 19.5-12.8 38.5-25.4 68.4-71.6 78-120.8 7-35.6 4.3-85-6.5-120-9.5-30.8-25.9-55.2-50-74.6-8.9-7.1-28.5-19.7-39.4-25.3-35.7-18.3-95.5-36-155.6-46.2-6.6-1.1-12.9-2.2-13.9-2.6-1.3-.4 4.7-2.9 17.5-7.3 39.3-13.6 51.7-19.8 81.4-40.9 18.8-13.3 31.5-25.7 41.3-40.4 14.7-22 23.7-45.6 28.8-75.2 2.7-15.2 2.4-47.3-.4-62.5-7.1-38.6-27.7-72.9-59.1-98.2C778.6 96.5 725 75.5 658.5 65c-35.3-5.5-30.5-5.4-175.5-5.5-74-.1-190.1.2-258 .5zm310.5 72c60.7 2.6 100.3 9.8 126.5 22.9 16.9 8.4 42.3 28.8 52.5 42 8.9 11.6 14 23.5 17.2 40 2.4 12.6 2.4 41.1 0 51.1-6.6 27.9-19.9 55.2-36.1 74.2-5.8 6.8-20.6 18.8-31.8 25.6-29.3 17.9-69.2 29.8-119.8 35.7-38 4.5-47 4.7-186.2 5.2l-133.8.5V131h143.8c81.4 0 154.1.4 167.7 1zM577 506.9c87.3 6.1 131.7 18.8 171.6 48.7 32.7 24.6 52.6 52.7 61.6 87 2.9 11.2 3.1 13 3.2 30.4 0 15.3-.4 20.2-2.2 28.2-8.4 38.1-30.2 64.6-69.2 84.1-39.9 20-93.5 30.9-177.5 35.8-11.9.7-78.8 1.3-179.7 1.6l-160.8.5V504.8l168.8.5c107.1.3 174.4.9 184.2 1.6z"/></svg>