<svg xmlns="http://www.w3.org/2000/svg" viewBox="0 0 3000 329.937" id="logo"><path d="M1539.703 20.007c-57.21-.38-103.524 14.399-140.884 43.194-37.75 28.811-56.424 63.828-56.424 107.41 0 35.803 18.674 68.501 49.026 94.188 36.587 31.13 87.174 45.138 149.44 45.138 26.068 0 52.936-4.284 73.172-9.729 29.966-7.78 69.657-25.687 81.713-52.15l-.772-39.298c-.775-27.243 1.172-28.416 29.192-28.799v-9.35H1618.7v9.35c10.901 0 18.29-.388 24.903 3.888 6.234 4.673 4.667 25.683 4.667 33.86l-.378 23.737c-8.955 17.126-29.589 26.462-44.366 32.301-13.623 5.451-38.54 11.284-61.879 11.673-38.922.389-69.277-10.51-94.573-26.461-25.686-16.743-50.592-51.365-50.592-94.566 0-41.642 26.47-75.897 57.605-97.304 20.236-14.002 54.475-26.07 88.332-25.674 29.194.396 56.441 7.388 76.281 18.685 22.578 12.451 46.706 37.75 55.646 56.424l8.949-3.502-14.396-61.1c-17.894-10.9-40.088-18.69-61.1-23.737-22.956-5.459-46.308-7.782-68.096-8.178zM171.607 26.464c-39.788.144-79.422.729-151.221.432L20 35.853c9.728 0 13.236-.394 19.07 4.274 5.451 4.683 6.226 9.727 6.226 26.862v183.29c0 15.567 1.167 31.526-2.337 35.804-5.056 5.84-8.562 7.008-21.015 6.62v9.334h147.889c40.474 0 107.02-1.164 134.256-22.565 10.512-5.835 29.574-23.737 29.185-54.095 0-36.97-15.95-48.262-30.35-56.432-12.843-7.001-33.079-12.446-56.817-16.34 19.066-6.611 23.346-8.567 35.41-17.905 12.453-8.955 20.636-26.85 20.636-44.752 0-46.706-50.6-61.484-89.512-63.43a3872.42 3872.42 0 0 0-41.034-.054zm2807.622.432l-96.518.386v8.177c15.949.776 20.637 1.171 23.738 12.452 1.55 4.287 1.173 14.003 1.173 27.626v177.852c0 32.298 2.735 39.699-22.959 39.699v8.949H2980l-.378-8.95c-26.074 0-24.918-10.125-24.918-39.698V75.537c0-31.912-.774-40.078 24.525-40.078v-8.563zm-2526.48.394v10.114c9.345 0 13.241.393 18.685 3.51 6.23 3.892 14.014 21.787 23.352 40.077L611.54 302.037h39.305c24.128-47.865 63.04-125.696 93.007-184.464 20.235-38.91 35.031-70.042 40.865-77.43 3.504-4.288 13.233-2.74 19.456-2.74V27.29l-81.72.385v9.729c.778 0 23.736-3.106 21.4 11.672-1.947 11.676-93.008 182.138-104.294 209.381l-90.685-170.84c-6.613-12.467-12.061-21.803-14.781-29.191-7.398-17.515 3.895-21.022 19.464-21.022V27.29H452.749zm2077.19.262c-5.815-.046-12.004-.024-18.577.008-8.763.043-18.214.116-28.335.116h-124.514v8.563c17.12 0 24.132 5.062 24.132 24.903v216.764c0 14.784-10.905 14.391-24.132 14.002v10.13h97.289v-10.13c-15.964 0-25.302-1.542-25.697-20.613v-80.95c10.505.774 19.853 0 36.196 0 5.839 0 36.96.391 46.311 0 35.409 0 51.755 42.029 70.835 71.607 15.949 24.906 8.943 40.085 110.913 40.085 0-2.335-.772-7.4-.772-9.736-43.588.39-51.772-25.69-70.457-59.155-17.498-30.35-22.186-50.197-67.325-55.26 68.492-12.836 86.403-43.97 86.403-79.39-.395-35.789-26.847-57.989-70.056-67.719-10.724-2.403-24.77-3.087-42.214-3.225zm-1566.6.116v8.563c13.62 0 17.514 1.168 21.408 6.627 3.887 5.047 3.888 13.61 3.888 28.798V271.68c0 17.905-7.002 21.011-23.738 21.4v8.957h244.784l28.405-56.818-8.941-3.51c-9.346 15.179-30.748 29.97-64.61 29.97h-128.81V59.584c0-12.847 2.337-16.725 5.446-19.842 4.672-3.892 7.007-3.114 19.07-3.51v-8.563H963.34zm1037.133.008l-113.25 215.6c-10.11 19.461-14.002 26.075-18.67 35.023-5.458 9.338-8.578 15.573-27.263 15.962v7.776h84.46l.393-8.941c-15.189.389-21.784-.789-22.18-14.411 0-4.283 3.89-11.273 9.729-21.778l15.946-28.027h163.448l19.472 33.072c12.847 21.408 9.325 29.196-13.632 30.365v9.72h101.185V291.53c-24.128 0-22.96-6.603-44.367-45.91l-119.46-217.944h-35.811zm480.564 19.795c29.914-.18 60.232 1.318 79.445 10.554 16.344 7.784 29.963 16.736 29.963 43.98 0 38.528-23.74 48.648-41.65 55.26-31.517 8.17-83.28 5.443-118.69 5.832V48.29c15.178 0 32.984-.71 50.932-.818zM175.18 49.724c23.844-.032 47.19.916 60.035 9.08 16.73 10.901 20.62 18.688 20.62 35.032 0 10.11-8.165 27.64-16.724 34.253-20.241 16.347-56.433 17.118-83.287 17.118H91.607V49.855h59.927c7.687 0 15.697-.12 23.645-.131zm1834.627 19.21l68.892 129.195h-134.265l65.373-129.196zM173.096 169.615c39.563-.107 67.652 1.418 87.406 16.062 10.507 7.78 20.629 21.402 20.629 37.755 0 45.14-56.424 48.255-112.078 48.255H91.607V169.724c21.013 0 42.811.39 63.83 0 6.13-.049 12.007-.093 17.659-.108z" fill-rule="evenodd"></path></svg>