<svg xmlns="http://www.w3.org/2000/svg" aria-hidden="true" width="10" height="10" viewBox="0 0 48 48" id="phone"><path d="M37.31 29.444c8.423 6.619 11.496 9.586 10.514 11.205l-2.353 3.882a6.534 6.534 0 0 1-3.88 2.964c-1.27.34-2.582.51-3.893.505-6.77 0-14.815-4.093-24.194-13.402C2.084 23.262-1.5 13.98.512 6.706a6.493 6.493 0 0 1 2.974-3.838L7.408.53a3.747 3.747 0 0 1 5.029 1.122l6.258 9.315a3.702 3.702 0 0 1-.818 4.98l-3.518 2.716c-.064.05-.083.137-.037.217l.285.517c1.48 2.691 2.78 4.444 6.259 7.899 3.479 3.455 5.245 4.744 7.96 6.213l.522.286c.07.038.158.02.213-.053l2.735-3.49a3.764 3.764 0 0 1 5.015-.808zm-3.426 2.039L31.16 34.96a2.185 2.185 0 0 1-2.786.585l-.516-.282c-2.875-1.556-4.797-2.96-8.416-6.553-3.619-3.594-5.032-5.5-6.601-8.353l-.28-.506a2.148 2.148 0 0 1 .568-2.771l3.508-2.71a1.71 1.71 0 0 0 .38-2.297L10.76 2.761a1.724 1.724 0 0 0-2.314-.517l-3.93 2.344A4.494 4.494 0 0 0 2.454 7.24C.66 13.724 3.977 22.31 14.928 33.184 23.961 42.149 31.53 46 37.702 46a12.747 12.747 0 0 0 3.354-.434 4.522 4.522 0 0 0 2.683-2.057l2.201-3.632a3.01 3.01 0 0 0-.16-.25c-.32-.453-.889-1.079-1.698-1.86-1.666-1.609-4.307-3.837-7.915-6.676a1.738 1.738 0 0 0-2.283.392z"></path></svg>